<svg xmlns="http://www.w3.org/2000/svg" width="66" height="75" viewBox="0 0 66 75">
  <defs>
    <style>
      .cls-1 {
        fill: #fff;
        fill-rule: evenodd;
      }
    </style>
  </defs>
  <path id="Shape" class="cls-1" d="M405.994,1712.56l-24.872-24.84a6.591,6.591,0,0,0-10.13,8.34l-0.035.18a45.963,45.963,0,0,1-12.625,23.56l-11.408,11.4a6.583,6.583,0,0,0,0,9.32l6.218,6.21a6.605,6.605,0,0,0,9.327,0l1.554-1.56,10.882,10.87a6.589,6.589,0,0,0,9.326-9.31l-4.663-4.66,1.554-1.55a6.582,6.582,0,0,0,0-9.32l-1.056-1.06a46.131,46.131,0,0,1,17.4-7.42l0.176-.04a6.6,6.6,0,0,0,8.351-.8h0A6.6,6.6,0,0,0,405.994,1712.56Zm-46.634,31.06a2.2,2.2,0,0,1-3.109,0l-6.218-6.21a2.2,2.2,0,0,1,0-3.11l10.881-10.87,9.327,9.32C369.177,1733.82,360.451,1742.53,359.36,1743.62Zm21.762,6.21a2.2,2.2,0,0,1-3.109,3.11l-10.881-10.87,3.109-3.11Zm-7.772-13.97c0.661-.66,1.65-1.67,3.211-3.01l1.452,1.45a2.2,2.2,0,0,1,0,3.11l-1.554,1.55Zm0.093-6.12-9.514-9.51a50.261,50.261,0,0,0,10.7-20.36l19.2,19.18A50.385,50.385,0,0,0,373.443,1729.74Zm29.442-10.96a2.214,2.214,0,0,1-3.109,0L374.9,1693.93a2.2,2.2,0,1,1,3.109-3.11l24.872,24.85A2.2,2.2,0,0,1,402.885,1718.78Zm-40.416,12.42a2.2,2.2,0,0,0-3.109,0l-3.109,3.1a2.2,2.2,0,0,0,3.109,3.11l3.109-3.11A2.188,2.188,0,0,0,362.469,1731.2Zm28.75-48.21a2.2,2.2,0,0,0-2.2,2.2v4.39a2.2,2.2,0,1,0,4.4,0v-4.39A2.2,2.2,0,0,0,391.219,1682.99Zm17.587,17.57h-4.4a2.2,2.2,0,0,0,0,4.4h4.4A2.2,2.2,0,0,0,408.806,1700.56Zm-2.842-12.53a2.2,2.2,0,0,0-3.109,0l-4.4,4.39a2.2,2.2,0,0,0,3.109,3.11l4.4-4.39A2.2,2.2,0,0,0,405.964,1688.03Z" transform="translate(-345 -1683)"/>
</svg>
